<svg width="139" height="22" viewBox="0 0 139 22" fill="none" xmlns="http://www.w3.org/2000/svg">
<g id="commeta">
<path d="M8.53138 21.3083C5.83684 21.3083 3.74225 20.5906 2.24763 19.155C0.77405 17.7195 0.037262 15.6928 0.037262 13.075C0.037262 11.3017 0.384605 9.73946 1.07929 8.38835C1.77398 7.01612 2.75285 5.96057 4.01592 5.22168C5.27899 4.46168 6.74204 4.08168 8.40507 4.08168C9.18396 4.08168 9.99443 4.17668 10.8365 4.36668C11.6996 4.53557 12.3627 4.73612 12.8258 4.96835L11.9732 8.73668C11.4891 8.50446 10.9523 8.32501 10.3628 8.19835C9.79445 8.05057 9.25764 7.97668 8.75242 7.97668C7.44725 7.97668 6.39469 8.42001 5.59475 9.30668C4.81586 10.1933 4.42642 11.365 4.42642 12.8217C4.42642 14.2995 4.82639 15.4395 5.62633 16.2417C6.44732 17.0439 7.60513 17.445 9.09976 17.445C10.0892 17.445 11.1522 17.255 12.289 16.875L12.9521 20.485C11.5838 21.0339 10.1102 21.3083 8.53138 21.3083Z" fill="white"/>
<path d="M23.4856 21.3083C21.8437 21.3083 20.3911 20.9495 19.1281 20.2317C17.886 19.5139 16.9177 18.5111 16.223 17.2233C15.5283 15.9145 15.181 14.405 15.181 12.695C15.181 10.985 15.5178 9.48612 16.1914 8.19835C16.8861 6.88946 17.8545 5.87612 19.0965 5.15835C20.3595 4.44057 21.8121 4.08168 23.4541 4.08168C25.096 4.08168 26.538 4.44057 27.7801 5.15835C29.0431 5.85501 30.0115 6.84723 30.6851 8.13501C31.3798 9.42279 31.7271 10.9111 31.7271 12.6C31.7271 14.31 31.3798 15.83 30.6851 17.16C30.0115 18.4689 29.0431 19.4928 27.7801 20.2317C26.538 20.9495 25.1066 21.3083 23.4856 21.3083ZM23.4541 17.445C24.5908 17.445 25.496 17.0122 26.1697 16.1467C26.8643 15.26 27.2117 14.0989 27.2117 12.6633C27.2117 11.2278 26.8643 10.0878 26.1697 9.24335C25.496 8.37779 24.5908 7.94501 23.4541 7.94501C22.3173 7.94501 21.4016 8.37779 20.7069 9.24335C20.0333 10.0878 19.6964 11.2278 19.6964 12.6633C19.6964 14.0989 20.0333 15.26 20.7069 16.1467C21.4016 17.0122 22.3173 17.445 23.4541 17.445Z" fill="white"/>
<path d="M35.0274 4.52501H39.385V7.05835C40.6691 5.0739 42.4058 4.08168 44.5951 4.08168C45.8371 4.08168 46.8897 4.37723 47.7528 4.96835C48.6369 5.53835 49.279 6.36168 49.679 7.43835C50.4157 6.27723 51.2367 5.43279 52.1419 4.90501C53.0682 4.35612 54.1207 4.08168 55.2996 4.08168C57.0468 4.08168 58.4046 4.60946 59.373 5.66501C60.3624 6.69946 60.8571 8.14557 60.8571 10.0033V20.8333H56.4048V10.7C56.4048 9.85557 56.1943 9.20112 55.7733 8.73668C55.3733 8.25112 54.826 8.00835 54.1313 8.00835C53.2682 8.00835 52.4682 8.36723 51.7314 9.08501C50.9947 9.80279 50.4473 10.7211 50.0895 11.84V20.8333H45.6371V10.7C45.6371 9.87668 45.4266 9.22223 45.0056 8.73668C44.5846 8.25112 44.0267 8.00835 43.3321 8.00835C42.5532 8.00835 41.8164 8.3039 41.1217 8.89501C40.4481 9.46501 39.9007 10.2778 39.4797 11.3333V20.8333H35.0274V4.52501Z" fill="white"/>
<path d="M64.8155 4.52501H69.1731V7.05835C70.4572 5.0739 72.1939 4.08168 74.3832 4.08168C75.6253 4.08168 76.6778 4.37723 77.5409 4.96835C78.4251 5.53835 79.0671 6.36168 79.4671 7.43835C80.2039 6.27723 81.0249 5.43279 81.9301 4.90501C82.8563 4.35612 83.9089 4.08168 85.0877 4.08168C86.835 4.08168 88.1928 4.60946 89.1611 5.66501C90.1505 6.69946 90.6452 8.14557 90.6452 10.0033V20.8333H86.1929V10.7C86.1929 9.85557 85.9824 9.20112 85.5614 8.73668C85.1614 8.25112 84.6141 8.00835 83.9194 8.00835C83.0563 8.00835 82.2564 8.36723 81.5196 9.08501C80.7828 9.80279 80.2355 10.7211 79.8776 11.84V20.8333H75.4253V10.7C75.4253 9.87668 75.2148 9.22223 74.7937 8.73668C74.3727 8.25112 73.8149 8.00835 73.1202 8.00835C72.3413 8.00835 71.6045 8.3039 70.9098 8.89501C70.2362 9.46501 69.6889 10.2778 69.2678 11.3333V20.8333H64.8155V4.52501Z" fill="white"/>
<path d="M102.431 21.3083C99.7996 21.3083 97.726 20.5483 96.2104 19.0283C94.7157 17.5083 93.9684 15.3972 93.9684 12.695C93.9684 10.9428 94.2947 9.42279 94.9473 8.13501C95.5999 6.82612 96.5156 5.82335 97.6945 5.12668C98.8944 4.43001 100.294 4.08168 101.894 4.08168C104.252 4.08168 106.062 4.84168 107.325 6.36168C108.588 7.88168 109.22 10.0772 109.22 12.9483C109.22 13.4339 109.209 13.7928 109.188 14.025H98.4523C98.6628 15.1439 99.147 15.9989 99.9048 16.59C100.663 17.16 101.684 17.445 102.968 17.445C103.747 17.445 104.557 17.35 105.399 17.16C106.241 16.9489 106.978 16.6745 107.61 16.3367L108.336 19.915C107.494 20.3583 106.557 20.6961 105.525 20.9283C104.515 21.1817 103.484 21.3083 102.431 21.3083ZM104.957 10.6683C104.894 9.76057 104.578 9.04279 104.01 8.51501C103.441 7.96612 102.684 7.69168 101.736 7.69168C100.831 7.69168 100.084 7.95557 99.4943 8.48335C98.9259 9.01112 98.5681 9.73946 98.4207 10.6683H104.957Z" fill="white"/>
<path d="M118.519 21.3083C117.003 21.3083 115.824 20.9283 114.982 20.1683C114.161 19.3872 113.75 18.2895 113.75 16.875V8.35668H111.224V4.52501H113.75V1.04168C115.245 0.788346 116.719 0.598346 118.171 0.47168V4.52501H122.276V8.35668H118.171V16.0517C118.171 16.495 118.297 16.8328 118.55 17.065C118.824 17.2972 119.203 17.4133 119.687 17.4133C120.276 17.4133 120.95 17.2761 121.708 17.0017L122.687 20.3583C121.339 20.9917 119.95 21.3083 118.519 21.3083Z" fill="white"/>
<path d="M129.775 21.3083C128.091 21.3083 126.754 20.5906 125.765 19.155C124.775 17.7195 124.281 15.7667 124.281 13.2967C124.281 10.2989 125.039 8.0189 126.554 6.45668C128.07 4.87335 130.249 4.08168 133.091 4.08168C134.691 4.08168 136.564 4.33501 138.711 4.84168V20.8333H134.48L134.575 18.2367H134.448C133.901 19.2289 133.227 19.9889 132.428 20.5167C131.649 21.0445 130.764 21.3083 129.775 21.3083ZM130.722 17.4133C131.375 17.4133 132.017 17.065 132.649 16.3683C133.28 15.6717 133.87 14.7428 134.417 13.5817V8.26168C133.743 8.07168 133.07 7.97668 132.396 7.97668C131.133 7.97668 130.175 8.40946 129.522 9.27501C128.891 10.1406 128.575 11.4178 128.575 13.1067C128.575 14.4367 128.765 15.4922 129.144 16.2733C129.522 17.0333 130.049 17.4133 130.722 17.4133Z" fill="white"/>
</g>
</svg>
