<svg width="100" height="32" viewBox="0 0 100 32" fill="none" xmlns="http://www.w3.org/2000/svg">
<g id="Frame 427319490" opacity="0.6">
<g id="Group 1">
<g id="Vector">
<path d="M35.8255 27.7575C36.0494 27.1662 36.7101 26.8837 37.3119 27.0838C37.8976 27.2787 38.496 27.4221 39.1233 27.4221C39.9882 27.4221 40.7295 27.2621 41.3473 26.9421C42.5451 26.3915 42.9888 24.9919 43.4972 23.8779L37.481 7.89872C37.2713 7.34174 37.6847 6.7476 38.2819 6.7476H41.8635C42.3526 6.7476 42.7872 7.05816 42.9439 7.51959L46.0918 16.7895L49.2398 7.51959C49.3965 7.05816 49.8311 6.7476 50.3202 6.7476H53.6735C54.2723 6.7476 54.6858 7.34474 54.473 7.90229L47.6857 25.6869C46.895 27.7051 45.8571 29.2557 44.5721 30.3387C43.2871 31.4462 41.5944 32 39.494 32C38.2558 32 37.0446 31.7746 35.882 31.3821C35.1695 31.1416 34.8449 30.3467 35.1104 29.6457L35.8255 27.7575Z" fill="white"/>
<path d="M30.2045 22.3642C28.8961 23.6674 27.2349 24.0336 25.3668 24.0256C22.0471 24.0113 19.2872 22.3909 18.1949 19.263C17.3701 16.9014 17.3527 14.0539 18.1949 11.6947C19.3015 8.59479 22.0443 6.7476 25.3858 6.7476C27.1808 6.7476 28.8576 7.00074 30.2045 8.18743V7.88356C30.2045 7.25619 30.7151 6.7476 31.345 6.7476H35.4052V24.0256H31.345C30.7151 24.0256 30.2045 23.517 30.2045 22.8896V22.3642ZM29.5002 18.6354C30.1674 17.774 30.501 16.691 30.501 15.3866C30.501 13.9098 30.1303 12.79 29.389 12.027C27.9381 10.4822 25.159 10.4574 23.829 12.1746C22.4733 13.9405 22.508 16.9189 23.8661 18.6723C25.2257 20.3776 28.1656 20.3585 29.5002 18.6354Z" fill="white"/>
<path d="M8.4512 0.102234H3.64964C2.37215 0.102234 1.7334 0.102234 1.24546 0.349858C0.816259 0.567675 0.467307 0.915235 0.248617 1.34272C0 1.82871 0 2.46491 0 3.73731V4.53248H8.0064C9.19254 4.53248 10.1068 4.84013 10.7493 5.45545C10.8327 5.52928 10.9109 5.60581 10.9839 5.68503C11.4947 6.23958 11.7501 6.92604 11.7501 7.74441C11.7501 7.80594 11.7489 7.86684 11.7465 7.92712C11.7103 8.83134 11.4026 9.59496 10.8235 10.218C10.7493 10.301 10.67 10.3789 10.5854 10.4516C9.99352 10.9604 9.1462 11.2148 8.04347 11.2148H0V20.3905C0 21.6629 0 22.2991 0.248617 22.7851C0.467307 23.2126 0.816259 23.5601 1.24546 23.7779C1.7334 24.0256 2.37215 24.0256 3.64964 24.0256H4.95268V15.4604H8.5624C9.79796 15.4604 10.9223 15.2881 11.9355 14.9436C12.9733 14.599 13.8629 14.0944 14.6043 13.4299C15.3456 12.7407 15.914 11.8916 16.3093 10.8825C16.7294 9.84877 16.9395 8.66737 16.9395 7.3383C16.9395 6.23074 16.7418 5.23393 16.3464 4.34788C15.951 3.46184 15.3827 2.71116 14.6413 2.09584C13.9 1.45592 12.998 0.96367 11.9355 0.619096C10.8976 0.274521 9.73618 0.102234 8.4512 0.102234Z" fill="white"/>
</g>
<g id="Vector_2" opacity="0.6">
<path d="M82.8949 7.93338C82.6546 7.37141 83.0686 6.74761 83.6819 6.74761H87.3115C87.7841 6.74761 88.2077 7.03792 88.3766 7.47754L91.5434 15.7189L94.6746 7.48135C94.8425 7.03974 95.2671 6.74761 95.7412 6.74761H99.1403C99.7549 6.74761 100.169 7.37387 99.9261 7.93618L93.2115 23.4861C93.0315 23.903 92.6195 24.1732 92.1638 24.1732H90.5922C90.135 24.1732 89.722 23.9013 89.5429 23.4823L82.8949 7.93338Z" fill="white"/>
<path d="M73.7767 19.9276C74.4192 19.9276 74.9752 19.8045 75.4447 19.5584C75.9389 19.3123 76.3466 18.9923 76.6679 18.5985C77.0138 18.1801 77.261 17.7002 77.4092 17.1587C77.5822 16.5926 77.6687 16.0019 77.6687 15.3866C77.6687 14.7713 77.5822 14.1929 77.4092 13.6514C77.261 13.0853 77.0138 12.6054 76.6679 12.2116C76.3466 11.7932 75.9389 11.4609 75.4447 11.2148C74.9752 10.9686 74.4192 10.8456 73.7767 10.8456C73.1342 10.8456 72.5659 10.9686 72.0716 11.2148C71.6021 11.4609 71.1944 11.7932 70.8484 12.2116C70.5272 12.6054 70.2801 13.0853 70.1071 13.6514C69.9341 14.1929 69.8476 14.7713 69.8476 15.3866C69.8476 16.0019 69.9341 16.5926 70.1071 17.1587C70.2801 17.7002 70.5272 18.1801 70.8484 18.5985C71.1944 18.9923 71.6021 19.3123 72.0716 19.5584C72.5659 19.8045 73.1342 19.9276 73.7767 19.9276ZM73.7767 24.5793C72.3682 24.5793 71.0955 24.3455 69.9588 23.8779C68.8468 23.3856 67.8831 22.7334 67.0676 21.9212C66.2769 21.0844 65.6715 20.1122 65.2514 19.0046C64.8313 17.8724 64.6212 16.6664 64.6212 15.3866C64.6212 14.1067 64.8313 12.913 65.2514 11.8055C65.6715 10.6979 66.2769 9.72572 67.0676 8.8889C67.8831 8.05207 68.8468 7.39984 69.9588 6.9322C71.0955 6.43995 72.3682 6.19383 73.7767 6.19383C75.1852 6.19383 76.4455 6.43995 77.5575 6.9322C78.6942 7.39984 79.6579 8.05207 80.4487 8.8889C81.2642 9.72572 81.8819 10.6979 82.302 11.8055C82.7221 12.913 82.9322 14.1067 82.9322 15.3866C82.9322 16.6664 82.7221 17.8724 82.302 19.0046C81.8819 20.1122 81.2642 21.0844 80.4487 21.9212C79.6579 22.7334 78.6942 23.3856 77.5575 23.8779C76.4455 24.3455 75.1852 24.5793 73.7767 24.5793Z" fill="white"/>
<path d="M56.815 2.27192C56.815 1.01717 57.8363 0 59.096 0H62.3009V24.0256H59.096C57.8363 24.0256 56.815 23.0084 56.815 21.7536V2.27192Z" fill="white"/>
</g>
<ellipse id="Ellipse 1" cx="8.23253" cy="7.88871" rx="1.57097" ry="1.5647" fill="white"/>
</g>
</g>
</svg>
