<svg width="135" height="36" viewBox="0 0 135 36" fill="none" xmlns="http://www.w3.org/2000/svg">
<g id="Frame 2087325737" opacity="0.6">
<g id="Group 48">
<g id="Group 46">
<path id="Rectangle 14" d="M0 12.9306C0 8.40448 0 6.14141 0.859406 4.41265C1.61536 2.89199 2.8216 1.65566 4.30524 0.880845C5.99192 0 8.19991 0 12.6159 0H22.5079C26.9239 0 29.1318 0 30.8185 0.880845C32.3022 1.65566 33.5084 2.89199 34.2644 4.41265C35.1238 6.14141 35.1238 8.40448 35.1238 12.9306V23.0694C35.1238 27.5955 35.1238 29.8586 34.2644 31.5874C33.5084 33.108 32.3022 34.3443 30.8185 35.1192C29.1318 36 26.9239 36 22.5079 36H12.6159C8.19991 36 5.99192 36 4.30524 35.1192C2.8216 34.3443 1.61536 33.108 0.859406 31.5874C0 29.8586 0 27.5955 0 23.0694V12.9306Z" fill="url(#paint0_linear_1_533)"/>
<path id="Rectangle 13" opacity="0.4" d="M12.7544 17.0189C13.1509 16.3151 13.3491 15.9632 13.6264 15.7073C13.8718 15.4809 14.1608 15.3098 14.4748 15.2053C14.8297 15.0871 15.2262 15.0871 16.0191 15.0871L21.761 15.0871C22.6792 15.0871 23.1384 15.0871 23.4038 15.2847C23.6353 15.4571 23.7846 15.7221 23.8145 16.0138C23.8488 16.3482 23.6192 16.7558 23.1601 17.5709L22.3656 18.9812C22.3669 18.9812 22.3677 18.9826 22.367 18.9837C21.9715 19.6859 21.7735 20.0372 21.4965 20.2928C21.2511 20.5193 20.962 20.6903 20.648 20.7949C20.2931 20.9131 19.8967 20.9131 19.1038 20.9131L13.3619 20.9131C12.4436 20.9131 11.9845 20.9131 11.7191 20.7154C11.4875 20.543 11.3383 20.278 11.3084 19.9863C11.2741 19.6519 11.5036 19.2444 11.9628 18.4293L11.6491 18.9812L12.7544 17.0189Z" fill="white"/>
<g id="Intersect">
<path d="M0.324041 29.9873C0 28.4279 0 26.3392 0 23.0693V22.6378L21.4211 22.6378C22.3394 22.6378 22.7985 22.6378 23.064 22.8355C23.2955 23.0079 23.4447 23.2729 23.4746 23.5646C23.5089 23.899 23.2794 24.3065 22.8202 25.1216L21.1676 28.0555C20.7712 28.7592 20.573 29.1111 20.2956 29.3671C20.0503 29.5935 19.7612 29.7645 19.4472 29.8691C19.0923 29.9873 18.6959 29.9873 17.903 29.9873L0.324041 29.9873Z" fill="white"/>
<path d="M34.7997 6.01261C35.1238 7.57202 35.1238 9.66073 35.1238 12.9305V13.3621L13.7026 13.3621C12.7843 13.3621 12.3252 13.3621 12.0598 13.1644C11.8283 12.992 11.679 12.727 11.6491 12.4353C11.6148 12.1009 11.8444 11.6934 12.3035 10.8783L13.9561 7.94445C14.3525 7.24067 14.5508 6.88878 14.8281 6.63286C15.0734 6.40642 15.3625 6.23537 15.6765 6.13079C16.0314 6.0126 16.4279 6.0126 17.2207 6.0126L34.7997 6.01261Z" fill="white"/>
</g>
</g>
<g id="Union">
<path d="M130.65 7.23899C130.65 5.79177 130.993 4.81393 132.825 4.81393H134.39C134.727 4.81393 135 4.53374 135 4.18811V1.3328C135 0.874447 134.677 0.483069 134.235 0.416185C133.59 0.318664 132.697 0.198486 132.214 0.198486C128.207 0.198486 125.612 2.27152 125.612 6.57405V8.38507H123.399C123.055 8.38507 122.826 8.61975 122.826 8.97177V12.0227C122.826 12.3747 123.055 12.6094 123.399 12.6094H125.612V26.9642C125.612 27.3162 125.841 27.5509 126.185 27.5509H130.077C130.421 27.5509 130.65 27.3162 130.65 26.9642V12.6094H134.428C134.771 12.6094 135 12.3747 135 12.0227V8.97177C135 8.61975 134.771 8.38507 134.428 8.38507H130.65V7.23899Z" fill="white"/>
<path fill-rule="evenodd" clip-rule="evenodd" d="M84.3807 8.97177C84.3807 8.61975 84.1517 8.38507 83.8083 8.38507H80.2974C79.9539 8.38507 79.7631 8.61975 79.725 8.97177L79.6105 10.771C78.1985 9.12823 76.2904 7.95481 73.9244 7.95481C68.6962 7.95481 64.88 12.4138 64.88 18.0071C64.88 23.6004 68.6962 28.0594 73.9244 28.0594C76.3667 28.0594 78.2366 26.9251 79.5723 25.3214L79.725 26.9642C79.7631 27.3162 79.9539 27.5509 80.2974 27.5509H83.8083C84.1517 27.5509 84.3807 27.3162 84.3807 26.9642V8.97177ZM79.3052 17.968C79.3052 20.8624 77.2826 23.3657 74.5349 23.3657C71.7491 23.3657 69.7266 21.058 69.7266 17.968C69.7266 14.9171 71.7491 12.6485 74.5349 12.6485C77.2826 12.6485 79.3052 15.0735 79.3052 17.968Z" fill="white"/>
<path d="M100.292 9.63671C100.406 9.36291 100.406 9.08912 100.101 8.85443C99.5667 8.38507 98.6509 7.95481 97.5823 7.95481C95.3308 7.95481 93.8043 9.24557 92.8121 11.0839L92.6595 8.97177C92.6213 8.61975 92.4305 8.38507 92.087 8.38507H88.3853C88.0419 8.38507 87.8129 8.61975 87.8129 8.97177V26.9642C87.8129 27.3162 88.0419 27.5509 88.3853 27.5509H92.2778C92.6213 27.5509 92.8503 27.3162 92.8503 26.9642V16.7946C92.8503 14.4477 94.3767 12.6485 96.7428 12.6485C97.4238 12.6485 97.8692 12.7865 98.237 12.9005L98.268 12.9101L98.3074 12.9223C98.689 13.0396 98.9943 12.9614 99.147 12.5311L100.292 9.63671Z" fill="white"/>
<path fill-rule="evenodd" clip-rule="evenodd" d="M119.585 8.38507C119.928 8.38507 120.157 8.61975 120.157 8.97177V26.9642C120.157 27.3162 119.928 27.5509 119.585 27.5509H116.074C115.731 27.5509 115.54 27.3162 115.502 26.9642L115.349 25.3214C114.013 26.9251 112.143 28.0594 109.701 28.0594C104.473 28.0594 100.657 23.6004 100.657 18.0071C100.657 12.4138 104.473 7.95481 109.701 7.95481C112.067 7.95481 113.975 9.12823 115.387 10.771L115.502 8.97177C115.54 8.61975 115.731 8.38507 116.074 8.38507H119.585ZM110.312 23.3657C113.059 23.3657 115.082 20.8624 115.082 17.968C115.082 15.0735 113.059 12.6485 110.312 12.6485C107.526 12.6485 105.503 14.9171 105.503 17.968C105.503 21.058 107.526 23.3657 110.312 23.3657Z" fill="white"/>
<path d="M50.9882 27.3913C52.2479 27.9652 53.6709 28.2521 55.2572 28.2521C56.7968 28.2521 58.1382 28.001 59.2812 27.4989C60.4476 26.9729 61.3341 26.2556 61.9406 25.3471C62.5704 24.4385 62.8854 23.4104 62.8854 22.2627C62.862 20.9477 62.5121 19.8957 61.8356 19.1066C61.1824 18.2937 60.401 17.696 59.4912 17.3134C58.5814 16.9309 57.4267 16.5603 56.027 16.2016C54.6507 15.843 53.6359 15.4963 52.9828 15.1615C52.3296 14.8029 52.003 14.2888 52.003 13.6194C52.003 13.0216 52.2363 12.5554 52.7028 12.2207C53.1927 11.8859 53.8809 11.7186 54.7673 11.7186C55.7238 11.7186 56.4819 11.9577 57.0418 12.4358C57.5047 12.7964 57.8059 13.2625 57.9455 13.8339C58.009 14.0942 58.222 14.3008 58.4837 14.3008H62.1669C62.4606 14.3008 62.6943 14.045 62.6547 13.7467C62.4228 11.9978 61.6832 10.5925 60.436 9.53083C59.0596 8.33535 57.2167 7.7376 54.9073 7.7376C53.3443 7.7376 51.9797 8.00061 50.8133 8.52662C49.6702 9.05263 48.7838 9.76992 48.1539 10.6785C47.5474 11.5871 47.2441 12.5913 47.2441 13.6911C47.2441 15.03 47.5707 16.094 48.2239 16.883C48.9004 17.6721 49.6936 18.2578 50.6033 18.6404C51.5364 19.023 52.7262 19.3936 54.1725 19.7522C55.5721 20.1348 56.5869 20.4934 57.2167 20.8281C57.8699 21.139 58.1965 21.6171 58.1965 22.2627C58.1965 22.8605 57.9282 23.3506 57.3917 23.7332C56.8785 24.1157 56.1553 24.307 55.2222 24.307C54.2658 24.307 53.461 24.0559 52.8078 23.5538C52.3054 23.1533 51.9736 22.6691 51.8126 22.1012C51.7414 21.85 51.5315 21.653 51.2763 21.653H47.326C47.0348 21.653 46.8015 21.9048 46.8436 22.2002C46.987 23.207 47.3654 24.1364 47.979 24.9884C48.7255 25.9926 49.7285 26.7936 50.9882 27.3913Z" fill="white"/>
</g>
</g>
</g>
<defs>
<linearGradient id="paint0_linear_1_533" x1="17.5619" y1="0" x2="17.5619" y2="36" gradientUnits="userSpaceOnUse">
<stop offset="0.213542" stop-color="white" stop-opacity="0.16"/>
<stop offset="1" stop-color="white" stop-opacity="0.1"/>
</linearGradient>
</defs>
</svg>
