<svg width="120" height="36" viewBox="0 0 120 36" fill="none" xmlns="http://www.w3.org/2000/svg">
<g id="Logo">
<path id="Vector" d="M74.1458 6.69146C75.9732 6.69146 77.4545 5.19352 77.4545 3.34573C77.4545 1.49793 75.9732 0 74.1458 0C72.3185 0 70.8372 1.49793 70.8372 3.34573C70.8372 5.19352 72.3185 6.69146 74.1458 6.69146Z" fill="#59DEBE"/>
<path id="Vector_2" d="M62.5143 8.81367H57.8102V28.9094H62.5143V19.7709C62.5143 18.8953 62.723 18.0235 63.0862 17.2155C63.6635 15.9311 64.6582 14.8853 65.905 14.2521C67.036 13.6778 68.3127 13.4742 69.5577 13.6644V8.85254C67.576 8.68348 65.5762 9.06858 63.7828 9.97931C63.3413 10.2037 62.9179 10.4568 62.5143 10.737V8.81367Z" fill="#190A35"/>
<path id="Vector_3" fill-rule="evenodd" clip-rule="evenodd" d="M50.7877 28.9092H55.4917V8.8135H50.7877V9.36503C49.0005 8.0995 46.8244 7.35695 44.4771 7.35695C38.3936 7.35695 33.4622 12.3435 33.4622 18.4949C33.4622 24.6465 38.3936 29.6331 44.4771 29.6331C46.8244 29.6331 49.0005 28.8905 50.7877 27.625V28.9092ZM44.4771 24.7242C47.879 24.7242 50.6372 21.9351 50.6372 18.4949C50.6372 15.0549 47.879 12.2658 44.4771 12.2658C41.0749 12.2658 38.3167 15.0549 38.3167 18.4949C38.3167 21.9351 41.0749 24.7242 44.4771 24.7242Z" fill="#190A35"/>
<path id="Vector_4" fill-rule="evenodd" clip-rule="evenodd" d="M100.075 18.4949C100.075 24.6465 95.1439 29.6331 89.0606 29.6331C82.9771 29.6331 78.0457 24.6465 78.0457 18.4949C78.0457 12.3435 82.9771 7.35695 89.0606 7.35695C95.1439 7.35695 100.075 12.3435 100.075 18.4949ZM89.0604 24.7242C92.4626 24.7242 95.2207 21.9351 95.2207 18.4949C95.2207 15.0549 92.4626 12.2658 89.0604 12.2658C85.6584 12.2658 82.9003 15.0549 82.9003 18.4949C82.9003 21.9351 85.6584 24.7242 89.0604 24.7242Z" fill="#190A35"/>
<path id="Vector_5" d="M76.4824 8.81367H71.7784V29.8115C71.7784 30.1913 71.6292 30.5554 71.3636 30.8241C71.0979 31.0926 70.7379 31.2435 70.3623 31.2435C69.9866 31.2435 69.6264 31.0926 69.3609 30.8241C69.0953 30.5554 68.9462 30.1913 68.9462 29.8115H64.2421C64.2421 31.4529 64.887 33.0269 66.0347 34.1875C67.1824 35.3481 68.739 36.0002 70.3623 36.0002C71.9855 36.0002 73.5421 35.3481 74.6898 34.1875C75.8313 33.0335 76.4753 31.4705 76.4824 29.8392C76.4824 29.833 76.4824 29.8269 76.4824 29.8207V29.8115V8.81367Z" fill="#190A35"/>
<path id="Vector_6" d="M112.253 7.63518C110.088 7.63518 107.949 8.52988 106.448 9.99367V8.85723H101.754V28.9094H106.448V16.4555C106.448 13.8642 108.525 11.7637 111.088 11.7637C113.65 11.7637 115.727 13.8642 115.727 16.4555V28.9094H120V14.9236C120 10.8982 116.234 7.63518 112.253 7.63518Z" fill="#190A35"/>
<path id="Vector_7" d="M24.3612 7.92002C24.0273 7.87874 23.687 7.85767 23.342 7.85767H22.4362C19.5679 7.85767 17.0377 9.323 15.5385 11.5539C14.4033 9.35703 12.1287 7.85767 9.50778 7.85767C7.63245 7.85767 5.9343 8.62524 4.70406 9.86684V8.83909H0V28.9091H4.70406V17.1753C4.70406 16.8663 4.73511 16.5649 4.79395 16.2735C5.20649 14.2349 6.99019 12.7015 9.12824 12.7015C11.275 12.7015 13.0648 14.2479 13.4675 16.299C13.5231 16.5825 13.5522 16.8753 13.5522 17.1753V28.9091H18.4651V16.986C18.4651 16.3945 18.5837 15.8309 18.798 15.3182C19.4413 13.7805 20.9471 12.7015 22.7022 12.7015C23.291 12.7015 23.8518 12.823 24.3612 13.0425V7.92002Z" fill="#190A35"/>
<path id="Vector_8" d="M26.9392 22.4061V28.9085H31.6758V16.2841C31.6758 12.9374 29.7464 10.0463 26.9511 8.68611V22.4061H26.9392Z" fill="#190A35"/>
</g>
</svg>
