<svg width="182" height="36" viewBox="0 0 182 36" fill="none" xmlns="http://www.w3.org/2000/svg">
<g id="Frame 427318868" opacity="0.6">
<g id="Group 37917">
<g id="Group">
<path id="Vector" d="M22.293 8.62134C13.1478 6.42673 6.75677 11.6419 2.82563 5.77778C2.81386 5.75416 2.80209 5.74236 2.79032 5.71877C2.6844 5.55359 2.82563 5.31761 3.01394 5.36479C11.1116 7.29986 12.4299 6.09634 15.8314 6.5093C18.9739 6.88687 22.293 8.62134 22.293 8.62134Z" fill="white"/>
<path id="Vector_2" d="M23.9056 10.0964C15.8549 8.90466 10.1465 14.934 5.83873 10.297C5.82696 10.2852 5.81519 10.2616 5.79166 10.2498C5.67397 10.12 5.75635 9.88399 5.93289 9.89579C13.2891 10.4385 15.0192 9.14065 18.0443 9.01086C20.8688 8.89287 23.9056 10.0964 23.9056 10.0964Z" fill="white"/>
<path id="Vector_3" d="M25.4002 11.9959C18.3735 11.0402 15.3605 17.3644 9.66389 13.4944C9.65212 13.4826 9.64035 13.4708 9.61682 13.4472C9.49913 13.341 9.53443 13.0342 9.6992 13.0342C15.9255 13.046 17.5497 11.5947 20.1745 11.2762C23.7291 10.8514 25.4002 11.9959 25.4002 11.9959Z" fill="white"/>
<path id="Vector_4" d="M28.5664 14.0846C24.8942 14.474 25.471 17.4238 21.4458 16.763C20.9161 16.6804 21.0338 16.3029 21.2692 16.2321C24.6472 15.2645 24.6472 14.6156 25.8595 14.1318C27.0129 13.6953 28.5664 14.0846 28.5664 14.0846Z" fill="white"/>
<path id="Vector_5" d="M26.9069 13.1755C21.6105 13.2817 20.257 17.0928 15.7962 15.8539C15.1135 15.6651 15.3489 15.146 15.7138 15.0988C20.822 14.2847 21.069 13.5295 22.9639 13.0811C24.7412 12.6564 26.9069 13.1755 26.9069 13.1755Z" fill="white"/>
<path id="Vector_6" d="M23.8818 8.60982C23.8465 8.6688 23.7641 8.6806 23.7053 8.65701C22.6107 8.03165 21.5869 7.30011 20.4099 6.49778C19.3035 5.75444 16.9259 4.73972 11.9826 4.97571C9.62858 5.0937 6.05055 5.57746 2.3548 3.04067C1.46028 2.43891 0.553996 1.4124 0.0831996 0.456692C0.0361232 0.374088 0.0125853 0.267891 0.000816223 0.161694C-0.0109529 0.0554974 0.106737 -0.0270748 0.212691 0.00831338C9.35789 3.68961 11.9708 2.25014 17.7263 3.58342C20.0919 4.13799 23.0226 7.58331 23.8703 8.44461C23.9172 8.48003 23.9172 8.55081 23.8818 8.60982Z" fill="white"/>
<path id="Vector_7" d="M31.8385 28.7862C31.7324 29.1163 31.7558 29.5058 31.5442 29.789C31.2851 30.1667 30.6497 30.202 30.3435 29.8597C30.1435 29.6829 30.1435 29.3998 30.0728 29.1754C29.6139 27.1579 29.1666 25.14 28.7193 23.1106C28.6724 22.9692 28.7193 22.8747 28.8605 22.8158C29.0843 22.7567 29.1078 23.0045 29.1782 23.1463C29.6843 24.5268 30.1551 25.9188 30.6731 27.2993C30.8378 27.7715 31.3912 27.6178 31.7558 27.7361C32.1443 27.9836 31.9089 28.4439 31.8385 28.7862Z" fill="white"/>
<path id="Vector_8" d="M32.4386 23.2168C32.4859 23.3466 32.4151 23.4999 32.274 23.5234C32.1916 23.5353 32.1209 23.5234 32.0974 23.4054C31.7559 22.7211 31.4617 22.0015 31.1086 21.3172C30.6498 20.9276 30.1671 20.5265 29.8848 19.972C29.3786 19.0753 29.4256 17.9072 29.9906 17.0458C30.0375 16.9868 30.0729 16.916 30.1202 16.857C30.2025 16.7391 30.379 16.7627 30.426 16.9042C30.4613 17.0104 30.4848 17.1166 30.5321 17.211C31.1675 19.205 31.7797 21.2227 32.4386 23.2168Z" fill="white"/>
<path id="Vector_9" d="M32.5329 13.7184C32.5095 14.2493 32.3094 14.7449 32.1799 15.2523C32.168 15.2876 32.1564 15.3112 32.121 15.323C32.0387 15.3585 31.9564 15.2994 31.9564 15.2169C31.9679 14.5207 32.2152 13.8364 32.0387 13.152C31.7798 12.2199 31.1441 11.4058 31.0972 10.4147C31.0734 9.8955 31.203 9.38814 31.3091 8.88078C30.9322 8.09025 30.7557 7.1817 30.9557 6.3204C30.991 6.2142 31.0029 6.2142 31.0618 6.29677C31.4268 6.82776 31.9091 7.35871 31.9091 8.05483C31.8622 9.04596 31.3206 10.0371 31.6856 11.0282C31.9798 11.9131 32.6152 12.7391 32.5329 13.7184Z" fill="white"/>
<path id="Vector_10" d="M35.6401 10.2969C35.6166 11.5948 34.4867 12.6331 34.6162 13.9546C34.6162 14.4619 34.7455 14.9811 34.6867 15.4885C34.6044 15.9368 34.0982 16.0076 33.7336 16.1138C33.5217 16.2082 33.2863 15.9604 33.3451 15.748C33.3451 14.2142 33.3451 12.6685 33.3451 11.1346C33.3686 10.4975 33.5217 9.82491 33.9571 9.34117C34.2278 9.02259 34.5101 8.70403 34.8044 8.38544C34.8632 8.31463 34.8986 8.23206 34.887 8.14945C34.8632 7.86628 34.8044 7.6185 34.934 7.28812C35.134 6.87516 35.3931 6.62738 35.6636 6.356C35.7108 6.30882 35.7813 6.33241 35.7932 6.39139C35.9816 7.22914 35.7932 8.13766 35.4047 8.8928C35.4989 9.34117 35.6401 9.81311 35.6401 10.2969Z" fill="white"/>
<path id="Vector_11" d="M50.5055 5.55376C48.9048 6.0021 48.1632 6.54485 47.5278 7.05221C47.5278 7.05221 48.9755 6.54485 51.0586 6.32069C56.9672 5.67175 57.3084 7.87816 63.9232 5.31777C64.1467 5.28238 64.2055 5.45936 64.1467 5.55376C63.264 7.08763 62.2871 8.78668 58.5914 8.94006C54.5661 9.10527 52.4712 7.48879 48.6928 7.97256C46.2802 8.27932 45.0325 9.03446 44.338 9.49464C52.577 7.91355 51.8943 11.5477 59.9683 9.61263C60.0626 9.589 60.1687 9.56541 60.2629 9.57721C60.4745 9.6008 60.5571 9.86041 60.4275 10.002C60.3687 10.0728 60.2864 10.1436 60.2275 10.2144C59.1683 11.3589 58.0499 12.6096 54.2835 12.3264C49.8582 11.996 49.5759 9.24686 41.1249 11.3471C49.3167 11.3117 49.1755 14.0019 55.343 13.1995C55.5549 13.1759 55.6842 13.4355 55.5196 13.5771C55.4254 13.6597 55.3192 13.7305 55.2369 13.8013C54.3073 14.5328 52.9535 15.4295 50.4113 14.9104C45.1149 13.8013 45.7859 11.6066 38.9711 12.8102C44.2791 12.9517 43.9145 15.0166 49.3639 15.5239C49.3639 15.5239 49.3639 15.5239 49.3755 15.5239C49.6697 15.5593 49.7524 15.9487 49.5051 16.1139C49.3167 16.2437 49.1048 16.3381 48.9048 16.4207C44.9267 17.9663 43.0787 12.9635 38.1942 14.0845C41.6899 14.3912 41.4073 15.5711 44.5618 16.4325C44.9029 16.5269 44.8679 16.987 44.491 17.0224C40.7484 17.4 41.078 14.875 38.7827 14.7806C38.1708 14.757 37.6058 15.0874 37.2997 15.6301C36.3935 17.2112 36.7581 18.7097 36.6993 19.5238C36.9112 20.3733 37.2292 21.1994 37.2408 22.0958C37.2527 22.7213 37.1939 23.3703 36.9935 23.972C36.617 25.2226 36.2404 26.4736 35.852 27.7361C35.7697 27.9955 35.7812 28.2786 35.8755 28.5265C36.0166 28.9041 36.1581 29.2699 36.217 29.671C36.3581 30.3434 36.2639 31.0396 36.0285 31.6886C35.5343 32.9039 35.0397 34.1191 34.5455 35.3463C34.4513 35.5703 34.3809 35.8066 34.2159 35.9953C33.9689 36.0425 33.9924 35.724 34.0159 35.5703C34.4985 31.0277 34.9574 26.4851 35.4282 21.9425L35.805 20.8571C35.0635 21.4941 34.7339 22.379 34.2513 23.1697C34.1924 23.3584 33.9101 23.3937 33.8512 23.1816C33.8982 22.3909 34.004 21.6005 34.0278 20.8098C34.0982 20.0076 34.0866 19.1934 34.3574 18.4265C34.6632 17.6478 35.2516 17.0224 35.7108 16.3499C36.4639 15.3823 37.0289 14.285 37.4173 13.1287C37.6527 12.4208 38.1473 11.7954 38.7827 11.4061C40.9838 10.0138 42.2665 8.81027 44.3499 7.22922C46.2683 5.77792 47.7513 4.64521 48.599 4.30306C52.4712 2.71017 60.251 4.42105 66.9128 0.0790075C67.0774 -0.0153931 67.2893 0.173376 67.16 0.44475C66.5362 2.02584 65.7947 3.04056 64.029 3.91369C58.9445 6.42689 53.1066 4.82221 50.5055 5.55376Z" fill="white"/>
<path id="Vector_12" d="M35.0635 8.27936C35.0635 8.27936 34.6278 7.51243 33.5685 7.41803C32.7682 7.34725 32.4035 7.61862 32.4035 7.61862C32.4035 7.61862 33.3685 7.33545 34.1219 8.00799C34.875 8.68052 34.4631 9.25869 34.4631 9.25869C34.4631 9.25869 35.287 8.77493 35.0635 8.27936Z" fill="white"/>
<path id="Vector_13" d="M35.0163 8.17313C35.0163 8.17313 34.4632 7.5832 33.3333 7.53598C33.3333 7.53598 34.004 7.70116 34.0867 8.06693C34.2278 8.76309 33.6159 9.6952 33.4982 10.1436C33.404 10.5447 35.0163 8.17313 35.0163 8.17313Z" fill="white"/>
</g>
<g id="Group_2">
<path id="Vector_14" d="M134.424 23.8211C132.892 24.0747 131.341 24.1923 129.789 24.1727C126.878 24.1727 123.756 22.2497 123.756 16.8802V13.7376C123.756 8.04424 127.029 6.42496 129.996 6.42496C131.478 6.41169 132.959 6.52136 134.424 6.75281C134.631 6.77682 134.821 6.86878 134.821 7.10467V8.27611C134.821 8.44003 134.73 8.51203 134.519 8.51203H134.428C133.054 8.39606 131.982 8.34807 129.999 8.34807C127.835 8.34807 125.877 9.51955 125.877 13.7376V16.8802C125.877 20.7506 127.625 22.2738 129.793 22.2738C131.211 22.2738 132.176 22.1819 132.724 22.1336V15.4289C132.719 15.3697 132.726 15.3101 132.745 15.2538C132.764 15.1975 132.794 15.1457 132.833 15.1015C132.873 15.0573 132.921 15.0217 132.975 14.9969C133.028 14.9721 133.086 14.9585 133.145 14.9571H134.404C134.524 14.9632 134.637 15.0158 134.719 15.1037C134.801 15.1916 134.846 15.3082 134.845 15.4289V23.3052C134.849 23.428 134.808 23.5479 134.731 23.6427C134.653 23.7375 134.544 23.8008 134.424 23.8211Z" fill="white"/>
<path id="Vector_15" d="M143.527 12.7539C142.443 12.7106 141.357 12.7897 140.29 12.9897V23.5409C140.296 23.6553 140.258 23.7675 140.184 23.8543C140.11 23.9414 140.006 23.9967 139.893 24.0086H138.682C138.564 24.0025 138.454 23.9498 138.375 23.8623C138.296 23.7746 138.255 23.6592 138.261 23.5409V12.1461C138.267 12.0284 138.31 11.9155 138.381 11.8221C138.453 11.7287 138.55 11.6591 138.662 11.6224C139.988 11.0347 141.597 10.9667 143.527 10.9667C143.833 10.9667 144.02 10.9907 144.02 11.3185V12.394C144.02 12.6379 143.972 12.7539 143.527 12.7539Z" fill="white"/>
<path id="Vector_16" d="M151.256 24.1724C147.832 24.1724 146.093 21.8977 146.093 18.4511V16.6679C146.093 13.2215 147.84 10.9505 151.256 10.9505C154.671 10.9505 156.419 13.2215 156.419 16.6679V18.4511C156.419 21.8977 154.659 24.1724 151.256 24.1724ZM154.401 16.6679C154.401 14.269 153.444 12.7537 151.256 12.7537C149.067 12.7537 148.134 14.257 148.134 16.6679V18.4511C148.134 20.8499 149.067 22.3692 151.256 22.3692C153.444 22.3692 154.401 20.8659 154.401 18.4511V16.6679Z" fill="white"/>
<path id="Vector_17" d="M164.187 24.1723H163.965C162.376 24.1723 159.167 23.2807 159.167 18.663V11.5822C159.162 11.5226 159.169 11.4625 159.189 11.4059C159.208 11.3493 159.239 11.2974 159.279 11.2534C159.32 11.2094 159.369 11.1743 159.423 11.1504C159.478 11.1265 159.537 11.1143 159.596 11.1144H160.808C160.866 11.1153 160.924 11.1284 160.978 11.1528C161.031 11.1772 161.079 11.2124 161.119 11.2563C161.158 11.3002 161.188 11.3517 161.207 11.4078C161.226 11.4639 161.233 11.5233 161.228 11.5822V18.663C161.228 21.4618 162.42 22.3692 163.977 22.3692H164.187C165.744 22.3692 166.935 21.4776 166.935 18.663V11.5822C166.931 11.5236 166.938 11.4645 166.956 11.4087C166.975 11.3529 167.005 11.3015 167.044 11.2577C167.083 11.2139 167.13 11.1786 167.183 11.154C167.236 11.1293 167.294 11.1159 167.353 11.1144H168.564C168.623 11.1153 168.681 11.1284 168.734 11.1528C168.788 11.1772 168.836 11.2124 168.875 11.2563C168.915 11.3002 168.945 11.3517 168.964 11.4078C168.983 11.4639 168.99 11.5233 168.985 11.5822V18.663C168.985 23.2807 165.768 24.1723 164.187 24.1723Z" fill="white"/>
<path id="Vector_18" d="M176.924 24.1726C176.011 24.1603 175.1 24.0749 174.2 23.9167V28.1588C174.2 28.2173 174.188 28.2748 174.166 28.3288C174.144 28.3825 174.111 28.4314 174.071 28.4728C174.029 28.514 173.981 28.5467 173.928 28.5689C173.874 28.5911 173.817 28.6027 173.759 28.6027H172.567C172.51 28.602 172.454 28.5901 172.402 28.5676C172.35 28.5448 172.303 28.5117 172.264 28.4702C172.224 28.4291 172.194 28.3799 172.174 28.3266C172.153 28.2732 172.144 28.216 172.146 28.1588V12.0222C172.146 11.7184 172.218 11.5785 172.635 11.4865C174.038 11.1439 175.476 10.9628 176.92 10.9467C180.391 10.9467 182 13.2177 182 16.7361V18.4193C182.004 22.1097 180.324 24.1726 176.924 24.1726ZM179.95 16.7401C179.95 14.2772 179.232 12.6859 176.924 12.6859C176.011 12.6913 175.1 12.7688 174.2 12.9178V22.2016C175.101 22.3504 176.011 22.4295 176.924 22.4375C179.208 22.4375 179.95 20.9381 179.95 18.4393V16.7401Z" fill="white"/>
<path id="Vector_19" d="M93.8861 23.9807C92.8375 24.1447 89.9142 24.3526 88.9016 24.3526C84.4059 24.3526 81.3556 23.2171 81.3556 17.5318V7.16855C81.3565 7.10851 81.3694 7.0493 81.3935 6.99434C81.4176 6.93941 81.452 6.88981 81.4954 6.84851C81.5385 6.80718 81.5897 6.77494 81.6453 6.75369C81.7012 6.73245 81.7607 6.72261 81.8202 6.72473H85.6172C85.6767 6.72206 85.7365 6.73151 85.7924 6.75257C85.8484 6.77362 85.8998 6.80579 85.9433 6.84722C85.9863 6.88866 86.0211 6.93848 86.0449 6.99366C86.0687 7.04888 86.0812 7.10835 86.0818 7.16855V17.5318C86.0818 19.6429 86.7809 20.3305 88.437 20.3305C89.1846 20.3281 89.9313 20.28 90.6731 20.1866V7.16855C90.6734 7.10835 90.6859 7.04888 90.7097 6.99366C90.7335 6.93848 90.7683 6.88866 90.8117 6.84722C90.8551 6.80579 90.9062 6.77362 90.9622 6.75257C91.0181 6.73151 91.0779 6.72206 91.1377 6.72473H94.9106C95.0338 6.71927 95.1537 6.76279 95.2454 6.84581C95.3367 6.92887 95.392 7.0448 95.3991 7.16855V22.1737C95.3991 23.4851 95.0019 23.8168 93.8861 23.9807Z" fill="white"/>
<path id="Vector_20" d="M102.711 24.1446H98.8902C98.768 24.1417 98.6519 24.0906 98.5664 24.0022C98.4812 23.9142 98.4333 23.7959 98.4333 23.6731V7.16851C98.4346 7.10917 98.4471 7.05064 98.4706 6.99623C98.494 6.94181 98.5281 6.89257 98.5706 6.85136C98.613 6.81016 98.6629 6.77776 98.7178 6.75603C98.7725 6.7343 98.8314 6.72366 98.8902 6.72472H102.711C102.77 6.72202 102.83 6.73147 102.886 6.75253C102.942 6.77358 102.994 6.80579 103.037 6.84722C103.08 6.88862 103.115 6.93844 103.139 6.99366C103.162 7.04884 103.175 7.10834 103.176 7.16851V23.6731C103.176 23.7348 103.164 23.7959 103.141 23.8531C103.118 23.9103 103.084 23.9624 103.041 24.0064C102.997 24.0501 102.946 24.0848 102.889 24.1086C102.833 24.1324 102.772 24.1446 102.711 24.1446Z" fill="white"/>
<path id="Vector_21" d="M116.218 23.9326C115.159 24.2367 114.059 24.3784 112.957 24.3524C108.672 24.3524 105.785 22.0095 105.785 16.64V14.2411C105.785 8.8555 108.672 6.51259 112.957 6.51259C114.059 6.48877 115.158 6.63026 116.218 6.93239C116.591 7.05234 116.731 7.12029 116.731 7.44817V10.4508C116.731 10.7546 116.591 10.8946 116.334 10.8946H116.262C115.179 10.7673 114.091 10.6979 113.001 10.6867C111.742 10.6867 110.618 11.2464 110.618 14.225V16.624C110.618 19.5786 111.738 20.1663 113.001 20.1663C114.091 20.154 115.179 20.0833 116.262 19.9544H116.306C116.584 19.9544 116.703 20.0944 116.703 20.3982V23.4167C116.731 23.7208 116.591 23.8166 116.218 23.9326Z" fill="white"/>
</g>
</g>
</g>
</svg>
